<?xml version="1.0" encoding="UTF-8" standalone="no"?>
<!DOCTYPE svg PUBLIC "-//W3C//DTD SVG 1.1//EN" "http://www.w3.org/Graphics/SVG/1.1/DTD/svg11.dtd">
<svg width="100%" height="100%" viewBox="0 0 281 81" version="1.1" xmlns="http://www.w3.org/2000/svg" xmlns:xlink="http://www.w3.org/1999/xlink" xml:space="preserve" xmlns:serif="http://www.serif.com/" style="fill-rule:evenodd;clip-rule:evenodd;stroke-linejoin:round;stroke-miterlimit:2;">
    <path d="M61.19,62.55L78.39,79.55L28.88,79.55L28.88,30.66L47.17,48.71C50.362,45.647 52.169,41.409 52.169,36.985C52.169,28.07 44.833,20.735 35.919,20.735C27.074,20.735 19.771,27.956 19.67,36.8L19.67,79.51L0,79.51L0,37C0.012,17.303 16.223,1.102 35.92,1.102C55.625,1.102 71.84,17.317 71.84,37.022C71.84,46.608 68.003,55.806 61.19,62.55Z" style="fill:rgb(31,186,214);"/>
    <path d="M101.76,30.6L100.39,38.44C99.513,38.191 98.611,38.043 97.7,38C96.084,37.916 94.524,38.621 93.52,39.89C92.337,41.607 91.536,43.557 91.17,45.61L91.17,61.33L83.05,61.33L83.05,31L90.05,31L90.79,36.89C91.365,34.961 92.467,33.229 93.97,31.89C95.273,30.742 96.953,30.112 98.69,30.12C99.73,30.143 100.763,30.304 101.76,30.6Z" style="fill:white;fill-rule:nonzero;"/>
    <path d="M127.8,48.63L108.8,48.63C109.07,51.38 109.8,53.32 111.04,54.47C112.419,55.671 114.215,56.285 116.04,56.18C117.291,56.188 118.533,55.975 119.71,55.55C121.028,55.039 122.277,54.367 123.43,53.55L126.8,58.13C123.572,60.814 119.498,62.274 115.3,62.25C110.527,62.25 106.86,60.82 104.3,57.96C101.74,55.1 100.473,51.227 100.5,46.34C100.452,43.476 101.007,40.635 102.13,38C103.127,35.653 104.775,33.64 106.88,32.2C109.076,30.754 111.662,30.014 114.29,30.08C118.597,30.08 121.953,31.433 124.36,34.14C126.767,36.847 127.98,40.627 128,45.48C128,45.86 127.91,46.91 127.8,48.63ZM119.9,43.19C119.9,38.157 118.087,35.64 114.46,35.64C112.927,35.572 111.456,36.269 110.54,37.5C109.607,38.74 109.043,40.74 108.85,43.5L119.9,43.5L119.9,43.19Z" style="fill:white;fill-rule:nonzero;"/>
    <path d="M133.92,60.1C132.452,58.421 131.71,56.225 131.86,54L131.86,18.93L140,18L140,53.78C140,55.11 140.56,55.78 141.66,55.78C142.213,55.795 142.761,55.678 143.26,55.44L144.92,61.22C143.275,61.909 141.504,62.25 139.72,62.22C137.575,62.362 135.467,61.592 133.92,60.1Z" style="fill:white;fill-rule:nonzero;"/>
    <path d="M170.48,34.35C173.04,37.19 174.32,41.13 174.32,46.17C174.379,49.079 173.781,51.964 172.57,54.61C171.497,56.942 169.757,58.905 167.57,60.25C165.223,61.624 162.539,62.317 159.82,62.25C155.28,62.25 151.723,60.827 149.15,57.98C146.577,55.133 145.29,51.197 145.29,46.17C145.217,43.264 145.802,40.379 147,37.73C148.078,35.401 149.817,33.439 152,32.09C154.367,30.711 157.072,30.018 159.81,30.09C164.37,30.09 167.927,31.51 170.48,34.35ZM155.23,38.59C154.223,40.21 153.72,42.737 153.72,46.17C153.72,49.603 154.223,52.13 155.23,53.75C156.244,55.269 157.954,56.184 159.78,56.184C161.606,56.184 163.316,55.269 164.33,53.75C165.337,52.13 165.843,49.603 165.85,46.17C165.857,42.737 165.36,40.21 164.36,38.59C163.427,37.002 161.679,36.063 159.84,36.16C157.975,36.058 156.2,36.994 155.23,38.59Z" style="fill:white;fill-rule:nonzero;"/>
    <path d="M201.9,55.52C202.302,56.123 202.91,56.56 203.61,56.75L201.9,62.13C200.362,62.058 198.862,61.626 197.52,60.87C196.331,60.112 195.418,58.989 194.92,57.67C192.92,60.717 189.887,62.243 185.82,62.25C183.173,62.388 180.58,61.446 178.64,59.64C176.846,57.853 175.887,55.39 176,52.86C175.846,49.88 177.205,47.015 179.61,45.25C182.01,43.503 185.463,42.627 189.97,42.62L193.46,42.62L193.46,41.13C193.46,39.26 193.04,37.97 192.2,37.24C190.968,36.403 189.483,36.021 188,36.16C185.266,36.273 182.567,36.813 180,37.76L178.17,32.32C181.735,30.873 185.543,30.116 189.39,30.09C193.5,30.09 196.54,30.98 198.48,32.75C200.42,34.52 201.4,37.17 201.4,40.68L201.4,52.92C201.33,53.816 201.503,54.714 201.9,55.52ZM193.43,53L193.43,47.26L190.74,47.26C186.347,47.26 184.153,48.9 184.16,52.18C184.091,53.308 184.448,54.422 185.16,55.3C185.914,56.075 186.971,56.481 188.05,56.41C190.345,56.398 192.439,55.07 193.43,53Z" style="fill:white;fill-rule:nonzero;"/>
    <path d="M234.05,18.93L234.05,61.33L226.9,61.33L226.44,57.61C224.561,60.572 221.256,62.336 217.75,62.25C214.34,62.413 211.084,60.77 209.19,57.93C207.23,55.05 206.25,51.13 206.25,46.17C206.197,43.321 206.71,40.489 207.76,37.84C208.646,35.58 210.142,33.61 212.08,32.15C213.954,30.777 216.227,30.054 218.55,30.09C221.312,30.06 223.973,31.141 225.93,33.09L225.93,18L234.05,18.93ZM223.3,55.3C224.353,54.557 225.247,53.612 225.93,52.52L225.93,39C225.247,38.151 224.426,37.424 223.5,36.85C222.633,36.367 221.653,36.122 220.66,36.14C218.866,36.103 217.188,37.047 216.29,38.6C215.243,40.24 214.717,42.777 214.71,46.21C214.71,49.83 215.18,52.41 216.12,53.93C216.92,55.378 218.466,56.263 220.12,56.22C221.248,56.235 222.354,55.914 223.3,55.3Z" style="fill:white;fill-rule:nonzero;"/>
    <path d="M242.12,60.1C240.656,58.419 239.915,56.225 240.06,54L240.06,18.93L248.19,18.02L248.19,53.78C248.19,55.11 248.74,55.78 249.85,55.78C250.403,55.794 250.951,55.677 251.45,55.44L253.11,61.22C251.461,61.908 249.687,62.248 247.9,62.22C245.762,62.354 243.664,61.584 242.12,60.1Z" style="fill:white;fill-rule:nonzero;"/>
    <path d="M270.62,61.39C269.638,64.874 267.635,67.985 264.87,70.32C262.25,72.41 258.72,73.62 254.25,73.92L253.39,68.08C255.654,67.914 257.844,67.2 259.77,66C261.299,64.777 262.459,63.153 263.12,61.31L260.32,61.31L250.88,31L259.52,31L265.58,56.06L272,31L280.41,31L270.62,61.39Z" style="fill:white;fill-rule:nonzero;"/>
</svg>
